<svg xmlns="http://www.w3.org/2000/svg" viewBox="0 0 65.36 65.36"><defs><style>.cls-1{fill:#fff;}</style></defs><title>iconInstagram</title><g id="Capa_2" data-name="Capa 2"><g id="Capa_1-2" data-name="Capa 1"><path class="cls-1" d="M65.36,32.68c0,6.57,0,11-.15,13.44-.31,6-2,10.54-5.34,13.74s-7.79,5-13.74,5.34c-2.44.15-7,.15-13.44.15-6.57,0-11,0-13.44-.15-6-.31-10.54-2-13.74-5.34C2.29,56.66.46,52.08.15,46.12,0,43.68,0,39.09,0,32.68s0-11,.15-13.44c.31-6,2-10.54,5.34-13.74C8.7,2.29,13.29.46,19.24.15,21.69,0,26.27,0,32.68,0c6.57,0,11,0,13.44.15,6,.31,10.54,2,13.74,5.34s5,7.79,5.34,13.74C65.21,21.69,65.36,26.11,65.36,32.68ZM35.89,5.8H25c-1.07,0-2.44,0-4.12.15a18.8,18.8,0,0,0-4.43.46,12.67,12.67,0,0,0-3.05.76A14.71,14.71,0,0,0,9.62,9.62a10.94,10.94,0,0,0-2.44,3.82,12.67,12.67,0,0,0-.76,3.05c-.15,1.22-.31,2.6-.46,4.43C6,22.6,5.8,24,5.8,25V40.32c0,1.07,0,2.44.15,4.12a18.8,18.8,0,0,0,.46,4.43,29.42,29.42,0,0,0,.76,3.05,14.71,14.71,0,0,0,2.44,3.82,10.94,10.94,0,0,0,3.82,2.44,12.67,12.67,0,0,0,3.05.76c1.22.15,2.6.31,4.43.46s3.05.15,4.12.15H40.32c1.07,0,2.44,0,4.12-.15a18.8,18.8,0,0,0,4.43-.46,12.67,12.67,0,0,0,3.05-.76,14.71,14.71,0,0,0,3.82-2.44,10.94,10.94,0,0,0,2.44-3.82,12.67,12.67,0,0,0,.76-3.05c.15-1.22.31-2.6.46-4.43,0-1.68.15-3.05.15-4.12V25c0-1.07,0-2.44-.15-4.12a18.8,18.8,0,0,0-.46-4.43,12.67,12.67,0,0,0-.76-3.05,14.71,14.71,0,0,0-2.44-3.82,10.94,10.94,0,0,0-3.82-2.44,12.67,12.67,0,0,0-3.05-.76c-1.22-.15-2.6-.31-4.43-.46-1.68,0-3.05-.15-4.12-.15Zm8.55,15a16.24,16.24,0,0,1,4.89,11.91,16.49,16.49,0,0,1-4.89,11.91,16.24,16.24,0,0,1-11.91,4.89,16.49,16.49,0,0,1-11.91-4.89,16.24,16.24,0,0,1-4.89-11.91,16.49,16.49,0,0,1,4.89-11.91,16.24,16.24,0,0,1,11.91-4.89A15.67,15.67,0,0,1,44.44,20.77ZM40.32,40.32a10.51,10.51,0,0,0,3.21-7.64,10.85,10.85,0,0,0-3.21-7.79,10.6,10.6,0,0,0-7.79-3.21,10.95,10.95,0,0,0-11,11,10,10,0,0,0,3.21,7.64,10.6,10.6,0,0,0,7.79,3.21A10.6,10.6,0,0,0,40.32,40.32ZM52.84,12.37a4,4,0,1,1-5.5,0,3.7,3.7,0,0,1,5.5,0Z"/></g></g></svg>